<?xml version="1.0" encoding="UTF-8"?>
<svg version="1.1" xmlns="http://www.w3.org/2000/svg" width="512" height="512">
<path d="M0 0 C3.1359157 1.77984405 3.84102736 2.52308207 5 6 C5.01084234 7.76854539 4.96849512 9.53765618 4.89453125 11.3046875 C4.18131974 24.99385969 4.18131974 24.99385969 9.90380859 36.84301758 C12.01603932 38.87028093 14.1900666 40.79099418 16.45166016 42.64990234 C18.85166238 44.74261952 20.73157466 47.18460793 22.6875 49.6875 C25.52912249 53.225448 28.44245809 56.64673728 31.5 60 C36.20463572 65.1750993 40.60518139 70.56141197 45 76 C45.99917657 77.21942517 46.99922565 78.43813577 48 79.65625 C55.31937847 88.58245729 62.40379881 97.6633066 69.375 106.86328125 C70.99132297 108.98859054 72.61860422 111.10499441 74.25 113.21875 C79.67142776 120.24818693 85.03038344 127.31908766 90.25 134.5 C90.77231201 135.21591309 91.29462402 135.93182617 91.83276367 136.66943359 C94.72927851 140.68772508 97.51538649 144.75705808 100.19723511 148.9223938 C101.68844571 151.23783037 103.19661587 153.54206581 104.70373535 155.84716797 C105.79262309 157.53174911 106.85317111 159.2345406 107.91308594 160.9375 C111.21464942 166.41406164 111.21464942 166.41406164 116.29052734 169.92919922 C118.71690178 170.31208378 118.71690178 170.31208378 122 170 C122.23332031 169.17757812 122.46664063 168.35515625 122.70703125 167.5078125 C124.25891075 163.29757748 126.3673349 159.70028897 128.6875 155.875 C129.5848424 154.37382162 130.48197639 152.87251865 131.37890625 151.37109375 C131.82121582 150.63487793 132.26352539 149.89866211 132.71923828 149.14013672 C134.54638209 146.08700241 136.33649777 143.01343123 138.125 139.9375 C138.96417969 138.49697266 138.96417969 138.49697266 139.8203125 137.02734375 C140.20960938 136.35832031 140.59890625 135.68929687 141 135 C140.154375 134.030625 139.30875 133.06125 138.4375 132.0625 C137.28887601 130.7106996 136.14324632 129.35635144 135 128 C134.4121875 127.31292969 133.824375 126.62585938 133.21875 125.91796875 C121.8086793 112.03071165 119.39559134 96.46767051 121 79 C123.51234406 64.35417608 132.04111987 51.56262052 143.90625 42.87109375 C158.42520593 33.30338372 173.92136483 30.78749816 190.90234375 33.66015625 C205.87417836 37.48169636 218.21910627 45.94709596 226.38769531 59.13452148 C234.57515259 73.19600334 236.29463117 88.710111 233.30859375 104.703125 C232.39912247 107.61038884 231.31973353 110.2567803 230 113 C229.41605469 114.35544922 229.41605469 114.35544922 228.8203125 115.73828125 C222.06259212 129.87351292 210.29077039 138.47293378 196 144 C182.40623091 148.43695859 168.46768119 147.38482643 155 143 C154.64421875 144.24330078 154.64421875 144.24330078 154.28125 145.51171875 C152.77640285 149.60875687 150.75795793 153.09315471 148.5 156.8125 C147.5996462 158.310829 146.69992587 159.80953881 145.80078125 161.30859375 C145.33881348 162.07671387 144.8768457 162.84483398 144.40087891 163.63623047 C142.99883722 166.00196202 141.64043212 168.38797624 140.29296875 170.78515625 C139.85597656 171.55432373 139.41898437 172.32349121 138.96875 173.1159668 C138.13267658 174.59008787 137.30541021 176.06924906 136.48828125 177.55395508 C134.20070512 181.54713799 132.39343317 184.12221943 128 186 C127.01 186 126.02 186 125 186 C125.3309668 186.5762915 125.66193359 187.15258301 126.00292969 187.74633789 C154.82671158 238.04909422 179.67842342 287.21793316 163.94873047 346.24389648 C155.92460195 374.63716459 142.17459643 400.40782581 121.43505859 421.52978516 C120.05717626 422.94142302 118.70945794 424.38231394 117.36328125 425.82421875 C91.0208329 453.42669453 50.6947145 472.25578484 12.42578125 474.1796875 C9.93956207 474.18605426 7.48214861 474.1171426 5 474 C5.01571045 474.57967529 5.0314209 475.15935059 5.04760742 475.7565918 C5.11022791 478.40012739 5.14907518 481.04350655 5.1875 483.6875 C5.21263672 484.59951172 5.23777344 485.51152344 5.26367188 486.45117188 C5.35702951 495.00895523 5.35702951 495.00895523 2 499 C-0.88861709 500.44430855 -2.79647701 500.37688506 -6 500 C-8.6796875 498.15234375 -8.6796875 498.15234375 -11 495 C-11.60943245 491.37538286 -11.47237088 487.8497729 -11.3125 484.1875 C-11.28994141 483.20845703 -11.26738281 482.22941406 -11.24414062 481.22070312 C-11.18539727 478.81222545 -11.10332129 476.40690922 -11 474 C-11.97283936 474.0467688 -11.97283936 474.0467688 -12.96533203 474.09448242 C-47.41099376 475.45955389 -87.33409728 458.44561569 -112.7578125 435.671875 C-113.30324707 435.16366211 -113.84868164 434.65544922 -114.41064453 434.13183594 C-116.11616566 432.6919858 -116.11616566 432.6919858 -119.25 432.9375 C-120.4875 433.288125 -121.725 433.63875 -123 434 C-124.83289464 434.50160578 -126.6662626 435.00148396 -128.5 435.5 C-129.3765625 435.7578125 -130.253125 436.015625 -131.15625 436.28125 C-153.35868987 441.89285568 -177.66591304 437.39108971 -197.3125 426.125 C-218.16811357 412.84381325 -233.11264049 393.25604038 -238.85131836 369.12182617 C-243.77086074 346.0047261 -239.93198039 322.43794662 -228 302 C-215.47011759 282.83804372 -197.00528136 267.8103763 -174.54296875 262.125 C-172.02661794 261.65984658 -169.53886623 261.30332786 -167 261 C-166.77054687 259.75476563 -166.54109375 258.50953125 -166.3046875 257.2265625 C-164.97594361 251.28315833 -162.61304132 245.91435538 -160.125 240.375 C-159.6395874 239.28614502 -159.1541748 238.19729004 -158.65405273 237.07543945 C-155.313468 229.68037841 -151.79313858 222.3934246 -148.0625 215.1875 C-147.63404785 214.35589355 -147.2055957 213.52428711 -146.76416016 212.66748047 C-138.38600736 196.81455306 -128.68304098 181.69528424 -118.70043945 166.81738281 C-117.06041374 164.37188911 -115.42915982 161.92071422 -113.79882812 159.46875 C-103.96078568 144.72088077 -93.67285981 130.31183272 -82.875 116.25 C-82.20106201 115.36932861 -81.52712402 114.48865723 -80.83276367 113.58129883 C-68.86511109 97.96926987 -56.64753507 82.55835182 -43.88500977 67.58618164 C-41.01917257 64.22111717 -38.2145827 60.81352447 -35.4375 57.375 C-31.57238406 52.62484857 -27.50898014 48.09155314 -23.3671875 43.58203125 C-21.22101269 41.24107159 -19.09959954 38.88274056 -17 36.5 C-16.46375 35.8915625 -15.9275 35.283125 -15.375 34.65625 C-12.37268344 31.03982323 -11.75985851 29.03117034 -11.76171875 24.4140625 C-11.74560547 23.31835938 -11.72949219 22.22265625 -11.71289062 21.09375 C-11.69602114 18.78911835 -11.69073307 16.48437163 -11.69726562 14.1796875 C-11.52618814 4.77594451 -11.52618814 4.77594451 -8.6484375 1.7421875 C-5.40960002 -0.38837521 -3.80595263 -0.64782172 0 0 Z M146.1875 62.875 C138.11443426 72.66732974 136.01131874 83.42405114 136.77050781 95.85644531 C137.88378694 106.25494613 143.4044553 114.16029254 151 121 C160.50376849 128.61592314 170.35360696 131.6743679 182.5703125 130.8203125 C193.93296274 129.03005571 204.011119 123.10211973 211 114 C217.86684966 102.48281545 219.99248802 90.97444304 217.3515625 77.75390625 C213.79097347 67.02649057 205.99005645 58.00488519 196 52.75 C178.72004455 44.25898741 158.96960243 49.03450692 146.1875 62.875 Z M-12 55 C-14.0365358 57.24564438 -16.0274925 59.51151681 -18 61.8125 C-18.59087402 62.49812012 -19.18174805 63.18374023 -19.79052734 63.89013672 C-23.85961588 68.62763142 -27.8459957 73.42550378 -31.7734375 78.28125 C-33.77565497 80.72606292 -35.81838474 83.13049903 -37.87841797 85.52661133 C-43.79680772 92.42367394 -49.33119914 99.57200733 -54.81640625 106.81640625 C-57.64055336 110.54319455 -60.52824062 114.2145662 -63.4375 117.875 C-69.58143092 125.64102775 -75.42911996 133.62175949 -81.26220703 141.62255859 C-82.89409704 143.85511618 -84.53728124 146.07884934 -86.18359375 148.30078125 C-100.26938513 167.41768381 -113.07009508 187.47601881 -125 208 C-125.59385498 209.01416992 -125.59385498 209.01416992 -126.19970703 210.04882812 C-141.94241149 233.87834405 -141.94241149 233.87834405 -150 260 C-147.35421083 260.31287748 -144.70837024 260.62530945 -142.0625 260.9375 C-140.95938477 261.06801758 -140.95938477 261.06801758 -139.83398438 261.20117188 C-134.55835917 261.82318882 -129.28018936 262.41797317 -124 263 C-123.72849121 262.44650879 -123.45698242 261.89301758 -123.17724609 261.32275391 C-109.6558576 233.8279288 -109.6558576 233.8279288 -106 232 C-102.4182378 231.61067802 -100.63718279 231.56403282 -97.625 233.625 C-95.50540556 236.7228688 -95.66560182 238.2820496 -96 242 C-97.28515625 245.15966797 -97.28515625 245.15966797 -99.0625 248.4921875 C-99.37324463 249.08299103 -99.68398926 249.67379456 -100.00415039 250.28250122 C-100.99133915 252.15299838 -101.99526482 254.0138798 -103 255.875 C-103.67560853 257.14783869 -104.35009975 258.4212711 -105.0234375 259.6953125 C-106.66942177 262.80384864 -108.33053201 265.90399953 -110 269 C-106.62889641 271.71456435 -103.21579603 274.30541845 -99.6875 276.8125 C-83.79209861 288.40954653 -71.99592159 303.45745977 -66.82202148 322.62280273 C-65.17450598 329.86541994 -65.17450598 329.86541994 -61.0390625 335.70703125 C-58.72084303 336.55657059 -58.72084303 336.55657059 -56.1328125 337.09765625 C-51.82294228 338.33902785 -48.4026185 340.56046601 -44.625 342.9375 C-43.86783691 343.40728271 -43.11067383 343.87706543 -42.33056641 344.36108398 C-35.33952224 348.72669261 -28.43171932 353.22496389 -21.54931641 357.75952148 C-20.75187012 358.28360596 -19.95442383 358.80769043 -19.1328125 359.34765625 C-18.43043457 359.81179932 -17.72805664 360.27594238 -17.00439453 360.75415039 C-15.05139197 361.96805686 -13.0727938 363.00718581 -11 364 C-8.25168635 344.18795708 -8.25168635 344.18795708 -12.46191406 325.375 C-16.5529404 321.31568704 -21.73766944 319.38061179 -27.03027344 317.30273438 C-32.59271374 314.8626504 -37.51567253 311.35066448 -42.5625 308 C-44.68140776 306.62942703 -46.80247713 305.26218967 -48.92578125 303.8984375 C-50.458396 302.9098877 -50.458396 302.9098877 -52.02197266 301.90136719 C-54.80331052 300.12557941 -57.60526452 298.38957747 -60.41796875 296.6640625 C-74.95309581 287.62188626 -74.95309581 287.62188626 -77.50390625 280.5703125 C-78.90923079 273.28918219 -79.20363428 266.30015652 -75.328125 259.75 C-71.20149707 254.31256084 -66.81672678 251.19591698 -60 250 C-48.54068249 249.09053036 -40.65182704 254.85638744 -31.375 260.9375 C-30.26898438 261.65357422 -29.16296875 262.36964844 -28.0234375 263.10742188 C-23.90737084 265.77643385 -19.79985704 268.44714876 -15.76416016 271.23657227 C-13.26544285 273.17927798 -13.26544285 273.17927798 -11 273 C-8.86831758 258.60610212 -8.86831758 258.60610212 -12.19824219 245.0625 C-15.52273422 242.03449967 -19.60440981 240.54422437 -23.7578125 238.95898438 C-27.78274629 237.23751879 -31.31259034 234.74296097 -34.9375 232.3125 C-35.62191162 231.87172119 -36.30632324 231.43094238 -37.01147461 230.97680664 C-52.98058605 220.67047324 -52.98058605 220.67047324 -56 211 C-57.02575626 204.47328538 -56.33895818 199.35121241 -52.97265625 193.65625 C-51.83433654 191.84922294 -51.83433654 191.84922294 -51 189 C-49.375 188 -49.375 188 -47 187 C-45.515 186.195625 -45.515 186.195625 -44 185.375 C-38.05899939 182.90700403 -31.28380577 182.8245468 -25.25 184.984375 C-22.75255381 186.21786976 -20.37991333 187.55402856 -18 189 C-16.62578202 189.77222662 -15.25087229 190.54322471 -13.875 191.3125 C-12.92625 191.869375 -11.9775 192.42625 -11 193 C-10.3373307 188.83151298 -10.12091125 185.14777679 -11 181 C-14.03300605 177.59935686 -17.69121531 175.68231203 -21.6875 173.5625 C-23.69455502 172.42349948 -25.69856657 171.27911618 -27.69921875 170.12890625 C-28.63467529 169.59724854 -29.57013184 169.06559082 -30.53393555 168.51782227 C-36.18691566 165.03850562 -40.03696019 160.37200624 -42 154 C-42.98038108 146.64219048 -42.59189468 140.03275313 -38 134 C-33.68214526 129.31622536 -29.32684986 126.28435781 -22.80078125 125.85546875 C-18.60386774 125.77916123 -15.17843428 126.16431314 -11 127 C-11 103.24 -11 79.48 -11 55 C-11.33 55 -11.66 55 -12 55 Z M5 55 C5 187.99 5 320.98 5 458 C41.55698968 458 76.36434764 441.41262176 103 417 C103.53866699 416.50661133 104.07733398 416.01322266 104.63232422 415.50488281 C133.57402753 388.61633091 151.36591616 350.09281971 153.32421875 310.6015625 C154.58543709 268.57211232 132.33863227 227.33625117 110 193 C109.57210175 192.1096405 109.57210175 192.1096405 109.13555908 191.20129395 C107.93737539 189.03303397 106.90917383 187.59161592 105 186 C101.03609492 184.98933627 97.16460111 185.11693721 93.09375 185.203125 C91.93629272 185.19794861 90.77883545 185.19277222 89.58630371 185.18743896 C85.89000211 185.17554033 82.19607602 185.2100918 78.5 185.25 C74.80440801 185.26874959 71.10932907 185.27750001 67.41369629 185.26971436 C65.1153945 185.26703475 62.81700134 185.28079652 60.5189209 185.31280518 C59.47433716 185.31560486 58.42975342 185.31840454 57.35351562 185.32128906 C56.4381604 185.33129944 55.52280518 185.34130981 54.57971191 185.35162354 C51.43642863 184.9231833 49.55152652 183.85471075 47 182 C46.40625 180.0625 46.40625 180.0625 46.5 178 C46.5103125 177.319375 46.520625 176.63875 46.53125 175.9375 C47.1362197 173.43695859 48.00639978 172.60674869 50 171 C52.03117371 170.60127258 52.03117371 170.60127258 54.37963867 170.56762695 C55.26032516 170.54783279 56.14101166 170.52803864 57.04838562 170.50764465 C57.99534805 170.50125473 58.94231049 170.49486481 59.91796875 170.48828125 C60.89034988 170.47033005 61.86273102 170.45237885 62.86457825 170.43388367 C65.97217464 170.37967533 69.07961652 170.34585102 72.1875 170.3125 C74.29364134 170.27933624 76.39976227 170.24484747 78.50585938 170.20898438 C83.67046161 170.12394269 88.83501719 170.05718159 94 170 C90.33507961 163.19457161 90.33507961 163.19457161 86.08984375 156.74609375 C85.32667847 155.6945813 85.32667847 155.6945813 84.5480957 154.62182617 C84.01659912 153.90099854 83.48510254 153.1801709 82.9375 152.4375 C82.37313232 151.66446533 81.80876465 150.89143066 81.22729492 150.0949707 C72.32511705 137.93284037 63.24902948 125.90036983 54 114 C53.57396484 113.45166504 53.14792969 112.90333008 52.70898438 112.33837891 C43.0203645 99.89029656 33.13048933 87.60358062 22.89599609 75.59936523 C19.2108003 71.27282322 15.62542609 66.87125383 12.0703125 62.4375 C9.85592423 59.83037117 7.41874307 57.41874307 5 55 Z M-24.75 142.625 C-27.24937948 144.83338028 -27.24937948 144.83338028 -27.5625 148 C-26.70328765 152.58246589 -23.97297694 154.32290714 -20.23828125 156.921875 C-19.27277344 157.52515625 -18.30726563 158.1284375 -17.3125 158.75 C-16.33925781 159.36359375 -15.36601562 159.9771875 -14.36328125 160.609375 C-12.31336782 162.08452411 -12.31336782 162.08452411 -11 162 C-9.87976077 152.53676242 -9.87976077 152.53676242 -12.41796875 143.82421875 C-16.54125984 140.84384417 -20.09349457 139.87342861 -24.75 142.625 Z M-40 202 C-41.19013424 205.01500674 -41.27279772 206.36974319 -39.98046875 209.35546875 C-37.31191204 212.91880779 -34.17812024 214.71079361 -30.375 216.9375 C-28.93159536 217.80743949 -27.48888268 218.67852813 -26.046875 219.55078125 C-25.35142578 219.9679541 -24.65597656 220.38512695 -23.93945312 220.81494141 C-20.74328473 222.7678872 -17.67075913 224.89417991 -14.6015625 227.0390625 C-13.02545682 228.17149859 -13.02545682 228.17149859 -11 228 C-9.75321851 222.60420676 -8.77826395 217.2489247 -11 212 C-16.26718725 206.30925165 -25.75372728 199.42705016 -33.66333008 198.78320312 C-36.6845201 199.06350996 -37.8993876 199.82436573 -40 202 Z M-60.75 266.625 C-63.2029373 268.83189022 -63.2029373 268.83189022 -63.75 271.875 C-61.9507179 279.37200873 -52.08019659 283.67936208 -45.9375 287.5 C-43.99463144 288.72109926 -42.0519283 289.94246177 -40.109375 291.1640625 C-39.11099609 291.78958008 -38.11261719 292.41509766 -37.08398438 293.05957031 C-33.94754389 295.03300516 -30.82361528 297.02488857 -27.703125 299.0234375 C-26.69515869 299.66861328 -25.68719238 300.31378906 -24.64868164 300.97851562 C-22.69663242 302.22870265 -20.74528078 303.47997965 -18.79467773 304.73242188 C-17.91755127 305.29251953 -17.0404248 305.85261719 -16.13671875 306.4296875 C-15.36030029 306.92710449 -14.58388184 307.42452148 -13.78393555 307.93701172 C-12.20292822 309.08531379 -12.20292822 309.08531379 -11 309 C-10.72685521 306.47189319 -10.53139617 303.97335213 -10.375 301.4375 C-10.29121094 300.73302734 -10.20742187 300.02855469 -10.12109375 299.30273438 C-10.0095996 296.8833114 -10.13302685 295.27171312 -11 293 C-13.98050661 290.08701295 -17.42216897 288.10562071 -21 286 C-22.80382812 284.83804977 -24.60462682 283.67138297 -26.40234375 282.5 C-28.24590368 281.33097686 -30.09096476 280.16431779 -31.9375 279 C-33.77994792 277.83333333 -35.62239583 276.66666667 -37.46484375 275.5 C-38.36960449 274.93152344 -39.27436523 274.36304688 -40.20654297 273.77734375 C-42.15110594 272.54011089 -44.08153647 271.28050104 -46.00048828 270.00390625 C-46.97099121 269.36324219 -47.94149414 268.72257812 -48.94140625 268.0625 C-49.81611572 267.47597656 -50.6908252 266.88945312 -51.59204102 266.28515625 C-55.20452389 264.35713132 -57.26267392 264.56430732 -60.75 266.625 Z M-201 295 C-201.69609375 295.60328125 -202.3921875 296.2065625 -203.109375 296.828125 C-215.49922517 308.25752167 -223.57690756 325.70261851 -224.37109375 342.53125 C-224.84406606 365.42082101 -219.56599205 383.75421397 -203.55761719 400.58544922 C-189.69008681 414.57006006 -171.28651101 422.14229295 -151.6875 422.4375 C-133.21976303 422.28911326 -115.31598707 416.07718017 -101.97265625 403.0234375 C-101.32167969 402.35570312 -100.67070312 401.68796875 -100 401 C-98.63875 399.7315625 -98.63875 399.7315625 -97.25 398.4375 C-83.39785714 383.4310119 -77.3527405 364.81916509 -77.73046875 344.57421875 C-78.54658442 325.51409855 -87.89140308 307.67262373 -101.48828125 294.609375 C-118.285804 279.97686629 -137.4004908 274.52711154 -159.43359375 275.77685547 C-175.09742406 277.1387981 -189.45383881 284.58423221 -201 295 Z M-62 351 C-62.66 355.95 -63.32 360.9 -64 366 C-52.57925525 373.45692879 -41.12786451 380.86062704 -29.60107422 388.15283203 C-24.60309747 391.3201165 -19.66733332 394.55057502 -14.80151367 397.91821289 C-13.06445726 399.17160109 -13.06445726 399.17160109 -11 399 C-9.9678355 393.62329997 -9.18109811 388.28682227 -11 383 C-14.56790511 378.54700114 -20.23866607 376.17180243 -25.18701172 373.55761719 C-30.63698477 370.53984006 -35.78768513 367.03128842 -41 363.625 C-47.88416151 359.17194183 -54.78305988 354.8941406 -62 351 Z M-69 383 C-69.4846875 383.96679688 -69.969375 384.93359375 -70.46875 385.9296875 C-77.95586739 400.59046415 -87.87508022 414.09425879 -102 423 C-82.91661657 443.64604262 -48.13314907 455.16609332 -21 458 C-17.66464148 458.07304153 -14.33544337 458.06040038 -11 458 C-8.13646153 436.0732107 -8.13646153 436.0732107 -12.49267578 415.203125 C-16.42787961 411.25890237 -21.28995845 409.57093852 -26.51611328 407.89892578 C-30.55228037 406.43822525 -33.8654209 404.05370765 -37.375 401.625 C-38.75803283 400.72160039 -40.14350359 399.82192329 -41.53125 398.92578125 C-44.83236803 396.77063558 -48.1204195 394.59633978 -51.40625 392.41796875 C-52.31584473 391.81839355 -53.22543945 391.21881836 -54.16259766 390.60107422 C-55.94220428 389.42759104 -57.71806813 388.24840791 -59.48974609 387.06298828 C-60.29492676 386.53302246 -61.10010742 386.00305664 -61.9296875 385.45703125 C-62.64366699 384.98241455 -63.35764648 384.50779785 -64.09326172 384.01879883 C-66.08068801 382.76436892 -66.08068801 382.76436892 -69 383 Z " fill="#000000" transform="translate(259,6)"/>
<path d="M0 0 C2.88703794 1.57491341 5.50636067 3.47705977 8.1875 5.375 C13.90384874 9.20048324 13.90384874 9.20048324 20.52734375 9.46875 C23.61795919 7.87862251 26.25887274 6.1315142 29 4 C33.5796716 1.02277564 37.43308333 -1.16480135 43 0 C46.9413046 1.7981153 50.57294615 4.03010708 54.25 6.3125 C55.24257812 6.90740234 56.23515625 7.50230469 57.2578125 8.11523438 C67.42721306 14.28163919 67.42721306 14.28163919 69 19 C69.26196036 23.45411998 69.23145119 27.9140107 69.25 32.375 C69.270625 33.60734375 69.29125 34.8396875 69.3125 36.109375 C69.32023437 37.89214844 69.32023437 37.89214844 69.328125 39.7109375 C69.3374707 40.79681152 69.34681641 41.88268555 69.35644531 43.00146484 C68.85437366 47.22505667 67.30621626 49.90886353 64.0546875 52.625 C63.33539063 53.07875 62.61609375 53.5325 61.875 54 C60.81925781 54.680625 60.81925781 54.680625 59.7421875 55.375 C57 57 57 57 54.71484375 57.89648438 C52.08259047 59.03795914 50.11875219 60.05556508 48 62 C46.85634512 65.84401428 47.05628048 69.52129911 47.25 73.5 C47.60764543 84.1101477 47.60764543 84.1101477 45.0234375 87.89453125 C41.23899248 90.52995226 37.39087789 92.92257228 33.375 95.1875 C31.86163259 96.05538553 30.3485983 96.92385224 28.8359375 97.79296875 C28.17126465 98.1696167 27.5065918 98.54626465 26.82177734 98.93432617 C25.17778228 99.8960038 23.58473227 100.94351182 22 102 C14.09312011 103.17304787 8.87088089 99.74115826 2.1875 95.8125 C1.15173828 95.23435547 0.11597656 94.65621094 -0.95117188 94.06054688 C-9.7293488 89.01266735 -9.7293488 89.01266735 -12 84 C-12.14672852 81.58740234 -12.14672852 81.58740234 -11.87890625 79.0859375 C-10.87755071 68.90184978 -10.87755071 68.90184978 -14.76855469 59.94873047 C-19.15305712 56.52989688 -24.01314345 54.12143217 -29.13647461 52.0012207 C-31 51 -31 51 -33 48 C-33.43287617 43.61053214 -33.4140628 39.21183967 -33.42553711 34.80371094 C-33.43742412 32.6388192 -33.48659944 30.47678929 -33.53710938 28.3125 C-33.54657566 26.92970136 -33.55380972 25.54688527 -33.55859375 24.1640625 C-33.57204834 22.91061035 -33.58550293 21.6571582 -33.59936523 20.36572266 C-32.68234705 15.21622664 -29.75268536 13.22702333 -25.61572266 10.33081055 C-22.96087308 8.76703488 -20.30011474 7.21640238 -17.625 5.6875 C-16.70460938 5.13771484 -15.78421875 4.58792969 -14.8359375 4.02148438 C-5.7696495 -1.19163123 -5.7696495 -1.19163123 0 0 Z M-10 20.4375 C-11.093125 21.07558594 -12.18625 21.71367187 -13.3125 22.37109375 C-15.83120809 23.75181135 -15.83120809 23.75181135 -17 25 C-17.67003674 30.12641318 -17.84843978 34.88774503 -17 40 C-14.4696124 43.11847342 -11.68913538 44.5278649 -8 46 C-7.21625 46.43570313 -6.4325 46.87140625 -5.625 47.3203125 C-1.66938289 48.34453479 0.29168237 46.99480058 3.8125 45.0625 C7.62652498 42.74285908 9.73992296 40.71931217 11.30078125 36.40234375 C11.66412744 32.02905642 11.51469573 29.13057976 10 25 C6.49803396 21.1162846 1.75516871 18.97658407 -3 17 C-5.321204 17 -8.1014143 19.32476758 -10 20.4375 Z M31.625 20 C29.76875 21.32 27.9125 22.64 26 24 C26 29.61 26 35.22 26 41 C34.30359753 46.8586078 34.30359753 46.8586078 43.82421875 47.2109375 C47.76422861 45.17374868 50.2338834 43.48125894 53 40 C54.08559839 34.76605222 53.80007104 30.25174833 53 25 C43.06916912 17.15074292 43.06916912 17.15074292 31.625 20 Z M5.31689453 60.53955078 C2.85719307 63.26738432 2.65615411 65.93752824 2.375 69.5 C2.77624377 74.32942803 3.34947849 76.33846825 6.76953125 79.81640625 C9.99830735 82.10467937 13.19987154 83.82833085 17 85 C19.67460147 84.46037375 19.67460147 84.46037375 22 83 C22.81082031 82.57460938 23.62164062 82.14921875 24.45703125 81.7109375 C25.23433594 81.27007812 26.01164062 80.82921875 26.8125 80.375 C27.60269531 79.92898438 28.39289063 79.48296875 29.20703125 79.0234375 C29.79871094 78.68570313 30.39039062 78.34796875 31 78 C32.18615226 69.95081028 32.18615226 69.95081028 31 62 C27.70613913 57.96565878 22.728089 55.90881681 18 54 C13.84972413 54 8.45319135 58.00879089 5.31689453 60.53955078 Z " fill="#000000" transform="translate(90,310)"/>
<path d="M0 0 C7.81423068 4.57705967 13.79423276 11.00137931 16.8125 19.625 C18.83012666 29.1078453 18.78272081 39.2272963 13.4375 47.5625 C13.025 48.25730469 12.6125 48.95210938 12.1875 49.66796875 C7.70654696 56.45304821 1.42899294 59.96590282 -6 62.9375 C-15.28798129 64.5669704 -24.47291069 64.14461136 -32.75390625 59.2734375 C-41.07856928 53.36561213 -46.25253437 46.61993463 -48.5625 36.5625 C-49.79378066 26.12174261 -47.74388011 17.96051553 -41.875 9.3125 C-32.03786751 -2.99014164 -14.18041431 -6.52118416 0 0 Z M-27.5625 17.5625 C-31.32372939 22.41250632 -32.93485896 26.24209093 -32.84375 32.4375 C-32.20876615 37.23515576 -29.59815765 40.579953 -26.125 43.875 C-21.20557137 47.11462373 -17.49675385 48.08304858 -11.5625 47.5625 C-5.67877496 45.52120764 -1.33717129 41.11184258 1.4375 35.5625 C2.20385019 28.69047455 1.56364152 24.13836692 -2.5625 18.5625 C-7.71253308 13.90294626 -10.91698467 13.20484668 -17.734375 13.28515625 C-22.07026137 13.71036058 -24.10871811 14.8840569 -27.5625 17.5625 Z " fill="#000000" transform="translate(354.5625,313.4375)"/>
<path d="M0 0 C5.28608129 3.80176499 9.7534905 9.06589309 11.15625 15.55078125 C12.14720296 24.57946379 11.61685535 32.08199359 6.15625 39.55078125 C1.48525161 44.77653004 -3.84563551 48.13128996 -10.859375 48.8671875 C-19.60910864 49.18258488 -25.25787601 47.36484029 -32.59375 42.86328125 C-39.04951536 36.22818907 -41.2124064 28.73796905 -41.125 19.69140625 C-40.47431264 12.42539744 -36.92124054 6.62827179 -31.84375 1.55078125 C-22.33271263 -5.13265042 -10.12391783 -5.8344007 0 0 Z M-23.84375 17.55078125 C-25.25375664 20.37079452 -25.08923451 22.4208538 -24.84375 25.55078125 C-23.58271101 28.32506702 -22.53285086 30.0339556 -20.09375 31.86328125 C-16.8226882 32.86277236 -14.24632412 32.90894695 -10.84375 32.55078125 C-8.09045979 30.7551572 -6.31747539 29.49823203 -4.84375 26.55078125 C-4.31009487 20.73732178 -4.31009487 20.73732178 -6.71875 15.61328125 C-9.94713568 12.47984809 -12.29304709 12.15859432 -16.8046875 12.19140625 C-20.22381698 12.79401145 -21.77564052 14.91864192 -23.84375 17.55078125 Z " fill="#000000" transform="translate(471.84375,201.44921875)"/>
<path d="M0 0 C1.28455078 -0.02900391 2.56910156 -0.05800781 3.89257812 -0.08789062 C5.13072266 -0.09626953 6.36886719 -0.10464844 7.64453125 -0.11328125 C9.3457312 -0.13515503 9.3457312 -0.13515503 11.08129883 -0.1574707 C14.85129564 0.41293281 16.49651494 1.66464464 19.1875 4.3125 C19.8515625 6.3125 19.8515625 6.3125 19.8125 8.3125 C19.82539063 8.9725 19.83828125 9.6325 19.8515625 10.3125 C18.81264736 13.44146796 16.89097499 14.51271922 14.1875 16.3125 C11.11303711 16.81420898 11.11303711 16.81420898 7.71484375 16.80859375 C6.48572266 16.80923828 5.25660156 16.80988281 3.99023438 16.81054688 C2.71470703 16.79056641 1.43917969 16.77058594 0.125 16.75 C-1.7940918 16.76063477 -1.7940918 16.76063477 -3.75195312 16.77148438 C-14.46985673 16.69834383 -14.46985673 16.69834383 -17.8125 13.3125 C-18.91623378 9.33905839 -19.22793583 7.22250228 -17.5 3.4375 C-13.44210467 -1.67244226 -5.9805906 0.04460908 0 0 Z " fill="#000000" transform="translate(435.8125,72.6875)"/>
<path d="M0 0 C1.18916016 -0.020625 2.37832031 -0.04125 3.60351562 -0.0625 C4.75142578 -0.06765625 5.89933594 -0.0728125 7.08203125 -0.078125 C8.13237549 -0.0874707 9.18271973 -0.09681641 10.26489258 -0.10644531 C13.61576178 0.30223141 15.48421475 1.26119549 18.1875 3.25 C19.73336876 6.34173752 19.48109521 8.84429552 19.1875 12.25 C17.01197387 15.21152693 15.80118927 16.14220106 12.15063477 16.78344727 C5.12964548 16.84915496 5.12964548 16.84915496 2.77026367 16.82641602 C0.75856701 16.81255901 -1.24846257 16.84661216 -3.25976562 16.88476562 C-4.53400391 16.88283203 -5.80824219 16.88089844 -7.12109375 16.87890625 C-8.28439209 16.87963135 -9.44769043 16.88035645 -10.64624023 16.88110352 C-14.75620018 16.0619003 -16.27463554 14.52597913 -18.8125 11.25 C-18.8125 7.59256132 -18.62558469 5.31054525 -16.375 2.375 C-11.61433292 -1.0526803 -5.64479187 0.02423958 0 0 Z " fill="#000000" transform="translate(435.8125,101.75)"/>
</svg>
